solid CATIA STL
  facet normal  0.000000e+000 -8.000000e-001  6.000000e-001
    outer loop
      vertex -7.000000e+001  7.000000e+001 -2.000000e+001
      vertex  7.000000e+001  7.000000e+001 -2.000000e+001
      vertex -1.000000e+002  1.000000e+002  2.000000e+001
    endloop
  endfacet
  facet normal  0.000000e+000 -8.000000e-001  6.000000e-001
    outer loop
      vertex -1.000000e+002  1.000000e+002  2.000000e+001
      vertex  7.000000e+001  7.000000e+001 -2.000000e+001
      vertex  1.000000e+002  1.000000e+002  2.000000e+001
    endloop
  endfacet
  facet normal -8.000000e-001  0.000000e+000  6.000000e-001
    outer loop
      vertex  7.000000e+001  7.000000e+001 -2.000000e+001
      vertex  7.000000e+001 -7.000000e+001 -2.000000e+001
      vertex  1.000000e+002  1.000000e+002  2.000000e+001
    endloop
  endfacet
  facet normal -8.000000e-001  0.000000e+000  6.000000e-001
    outer loop
      vertex  1.000000e+002  1.000000e+002  2.000000e+001
      vertex  7.000000e+001 -7.000000e+001 -2.000000e+001
      vertex  1.000000e+002 -1.000000e+002  2.000000e+001
    endloop
  endfacet
  facet normal  -0.000000e+000  8.000000e-001  6.000000e-001
    outer loop
      vertex  7.000000e+001 -7.000000e+001 -2.000000e+001
      vertex -7.000000e+001 -7.000000e+001 -2.000000e+001
      vertex  1.000000e+002 -1.000000e+002  2.000000e+001
    endloop
  endfacet
  facet normal  0.000000e+000  8.000000e-001  6.000000e-001
    outer loop
      vertex  1.000000e+002 -1.000000e+002  2.000000e+001
      vertex -7.000000e+001 -7.000000e+001 -2.000000e+001
      vertex -1.000000e+002 -1.000000e+002  2.000000e+001
    endloop
  endfacet
  facet normal  8.000000e-001  0.000000e+000  6.000000e-001
    outer loop
      vertex -7.000000e+001 -7.000000e+001 -2.000000e+001
      vertex -7.000000e+001  7.000000e+001 -2.000000e+001
      vertex -1.000000e+002 -1.000000e+002  2.000000e+001
    endloop
  endfacet
  facet normal  8.000000e-001  -0.000000e+000  6.000000e-001
    outer loop
      vertex -1.000000e+002 -1.000000e+002  2.000000e+001
      vertex -7.000000e+001  7.000000e+001 -2.000000e+001
      vertex -1.000000e+002  1.000000e+002  2.000000e+001
    endloop
  endfacet
endsolid CATIA STL
