solid CATIA STL
  facet normal  4.598278e-001  7.400821e-001 -4.907514e-001
    outer loop
      vertex  1.677050e+001  3.354101e+001 -1.999999e+001
      vertex  3.495054e+001  4.876950e+001  1.999994e+001
      vertex  2.263974e+001  2.989439e+001 -1.999991e+001
    endloop
  endfacet
  facet normal  4.504800e-001  7.468950e-001 -4.890966e-001
    outer loop
      vertex  1.677050e+001  3.354101e+001 -1.999999e+001
      vertex  2.683282e+001  5.366564e+001  2.000000e+001
      vertex  3.495054e+001  4.876950e+001  1.999994e+001
    endloop
  endfacet
  facet normal  8.695043e-001  6.889930e-002 -4.890962e-001
    outer loop
      vertex  3.750000e+001  2.001362e-013 -2.000000e+001
      vertex  5.925113e+001  9.450327e+000  1.999994e+001
      vertex  6.000000e+001  1.811884e-013  2.000000e+001
    endloop
  endfacet
  facet normal  8.675907e-001  8.030964e-002 -4.907514e-001
    outer loop
      vertex  3.750000e+001  2.001362e-013 -2.000000e+001
      vertex  3.686316e+001  6.880425e+000 -1.999991e+001
      vertex  5.925113e+001  9.450327e+000  1.999994e+001
    endloop
  endfacet
  facet normal  8.483821e-001  2.051430e-001 -4.880206e-001
    outer loop
      vertex  3.686316e+001  6.880425e+000 -1.999991e+001
      vertex  5.702304e+001  1.866473e+001  1.999994e+001
      vertex  5.925113e+001  9.450327e+000  1.999994e+001
    endloop
  endfacet
  facet normal  8.058175e-001  3.363449e-001 -4.873707e-001
    outer loop
      vertex  3.497489e+001  1.352723e+001 -1.999991e+001
      vertex  5.337146e+001  2.741320e+001  1.999994e+001
      vertex  5.702304e+001  1.866473e+001  1.999994e+001
    endloop
  endfacet
  facet normal  8.373880e-001  2.378904e-001 -4.921273e-001
    outer loop
      vertex  3.497489e+001  1.352723e+001 -1.999991e+001
      vertex  5.702304e+001  1.866473e+001  1.999994e+001
      vertex  3.686316e+001  6.880425e+000 -1.999991e+001
    endloop
  endfacet
  facet normal  7.428871e-001  4.591294e-001 -4.871539e-001
    outer loop
      vertex  3.189915e+001  1.971476e+001 -1.999991e+001
      vertex  4.838755e+001  3.547733e+001  1.999994e+001
      vertex  5.337146e+001  2.741320e+001  1.999994e+001
    endloop
  endfacet
  facet normal  7.791778e-001  3.873190e-001 -4.928142e-001
    outer loop
      vertex  3.189915e+001  1.971476e+001 -1.999991e+001
      vertex  5.337146e+001  2.741320e+001  1.999994e+001
      vertex  3.497489e+001  1.352723e+001 -1.999991e+001
    endloop
  endfacet
  facet normal  6.612086e-001  5.703271e-001 -4.873707e-001
    outer loop
      vertex  2.774037e+001  2.523293e+001 -1.999991e+001
      vertex  4.219572e+001  4.265583e+001  1.999994e+001
      vertex  4.838755e+001  3.547733e+001  1.999994e+001
    endloop
  endfacet
  facet normal  6.948876e-001  5.237035e-001 -4.928144e-001
    outer loop
      vertex  2.774037e+001  2.523293e+001 -1.999991e+001
      vertex  4.838755e+001  3.547733e+001  1.999994e+001
      vertex  3.189915e+001  1.971476e+001 -1.999991e+001
    endloop
  endfacet
  facet normal  5.628935e-001  6.670732e-001 -4.880207e-001
    outer loop
      vertex  2.263974e+001  2.989439e+001 -1.999991e+001
      vertex  3.495054e+001  4.876950e+001  1.999994e+001
      vertex  4.219572e+001  4.265583e+001  1.999994e+001
    endloop
  endfacet
  facet normal  5.872667e-001  6.425951e-001 -4.921273e-001
    outer loop
      vertex  2.263974e+001  2.989439e+001 -1.999991e+001
      vertex  4.219572e+001  4.265583e+001  1.999994e+001
      vertex  2.774037e+001  2.523293e+001 -1.999991e+001
    endloop
  endfacet
  facet normal  8.666694e-001 -8.535987e-002 -4.915261e-001
    outer loop
      vertex  3.750000e+001  2.001362e-013 -2.000000e+001
      vertex  5.926130e+001 -9.386066e+000  2.000000e+001
      vertex  3.677945e+001 -7.315885e+000 -2.000000e+001
    endloop
  endfacet
  facet normal  8.695322e-001 -6.843381e-002 -4.891119e-001
    outer loop
      vertex  3.750000e+001  2.001362e-013 -2.000000e+001
      vertex  6.000000e+001  1.811884e-013  2.000000e+001
      vertex  5.926130e+001 -9.386066e+000  2.000000e+001
    endloop
  endfacet
  facet normal -8.695319e-001 -6.843469e-002 -4.891123e-001
    outer loop
      vertex -3.749998e+001 -3.859447e-011 -1.999999e+001
      vertex -5.926130e+001 -9.386066e+000  2.000000e+001
      vertex -6.000001e+001  1.416822e-011  2.000000e+001
    endloop
  endfacet
  facet normal -8.666697e-001 -8.535749e-002 -4.915261e-001
    outer loop
      vertex -3.749998e+001 -3.859447e-011 -1.999999e+001
      vertex -3.677945e+001 -7.315885e+000 -2.000000e+001
      vertex -5.926130e+001 -9.386066e+000  2.000000e+001
    endloop
  endfacet
  facet normal -8.489051e-001 -2.038046e-001 -4.876718e-001
    outer loop
      vertex -3.677945e+001 -7.315885e+000 -2.000000e+001
      vertex -5.706339e+001 -1.854102e+001  2.000000e+001
      vertex -5.926130e+001 -9.386066e+000  2.000000e+001
    endloop
  endfacet
  facet normal -8.068200e-001 -3.341956e-001 -4.871907e-001
    outer loop
      vertex -3.464548e+001 -1.435062e+001 -2.000000e+001
      vertex -5.346039e+001 -2.723942e+001  2.000000e+001
      vertex -5.706339e+001 -1.854102e+001  2.000000e+001
    endloop
  endfacet
  facet normal -8.325383e-001 -2.525483e-001 -4.930511e-001
    outer loop
      vertex -3.464548e+001 -1.435062e+001 -2.000000e+001
      vertex -5.706339e+001 -1.854102e+001  2.000000e+001
      vertex -3.677945e+001 -7.315885e+000 -2.000000e+001
    endloop
  endfacet
  facet normal -7.443779e-001 -4.561554e-001 -4.876719e-001
    outer loop
      vertex -3.118011e+001 -2.083388e+001 -2.000000e+001
      vertex -4.854102e+001 -3.526711e+001  2.000000e+001
      vertex -5.346039e+001 -2.723942e+001  2.000000e+001
    endloop
  endfacet
  facet normal -7.672717e-001 -4.101153e-001 -4.930511e-001
    outer loop
      vertex -3.118011e+001 -2.083388e+001 -2.000000e+001
      vertex -5.346039e+001 -2.723942e+001  2.000000e+001
      vertex -3.464548e+001 -1.435062e+001 -2.000000e+001
    endloop
  endfacet
  facet normal -6.632420e-001 -5.664623e-001 -4.891119e-001
    outer loop
      vertex -2.651650e+001 -2.651649e+001 -2.000000e+001
      vertex -4.242640e+001 -4.242640e+001  2.000000e+001
      vertex -4.854102e+001 -3.526711e+001  2.000000e+001
    endloop
  endfacet
  facet normal -6.731858e-001 -5.524699e-001 -4.915261e-001
    outer loop
      vertex -2.651650e+001 -2.651649e+001 -2.000000e+001
      vertex -4.854102e+001 -3.526711e+001  2.000000e+001
      vertex -3.118011e+001 -2.083388e+001 -2.000000e+001
    endloop
  endfacet
  facet normal -4.561555e-001 -7.443779e-001 -4.876718e-001
    outer loop
      vertex -2.083388e+001 -3.118010e+001 -2.000000e+001
      vertex -2.723943e+001 -5.346038e+001  2.000000e+001
      vertex -3.526711e+001 -4.854101e+001  2.000000e+001
    endloop
  endfacet
  facet normal -5.524696e-001 -6.731861e-001 -4.915261e-001
    outer loop
      vertex -2.083388e+001 -3.118010e+001 -2.000000e+001
      vertex -3.526711e+001 -4.854101e+001  2.000000e+001
      vertex -2.651650e+001 -2.651649e+001 -2.000000e+001
    endloop
  endfacet
  facet normal -3.341956e-001 -8.068200e-001 -4.871907e-001
    outer loop
      vertex -1.435063e+001 -3.464547e+001 -2.000000e+001
      vertex -1.854102e+001 -5.706338e+001  2.000000e+001
      vertex -2.723943e+001 -5.346038e+001  2.000000e+001
    endloop
  endfacet
  facet normal -4.101152e-001 -7.672719e-001 -4.930512e-001
    outer loop
      vertex -1.435063e+001 -3.464547e+001 -2.000000e+001
      vertex -2.723943e+001 -5.346038e+001  2.000000e+001
      vertex -2.083388e+001 -3.118010e+001 -2.000000e+001
    endloop
  endfacet
  facet normal -2.038042e-001 -8.489052e-001 -4.876718e-001
    outer loop
      vertex -7.315886e+000 -3.677943e+001 -2.000000e+001
      vertex -9.386066e+000 -5.926129e+001  2.000000e+001
      vertex -1.854102e+001 -5.706338e+001  2.000000e+001
    endloop
  endfacet
  facet normal -2.525477e-001 -8.325385e-001 -4.930511e-001
    outer loop
      vertex -7.315886e+000 -3.677943e+001 -2.000000e+001
      vertex -1.854102e+001 -5.706338e+001  2.000000e+001
      vertex -1.435063e+001 -3.464547e+001 -2.000000e+001
    endloop
  endfacet
  facet normal -6.843346e-002 -8.695323e-001 -4.891119e-001
    outer loop
      vertex  6.868580e-014 -3.749998e+001 -2.000000e+001
      vertex -7.105427e-015 -5.999998e+001  2.000000e+001
      vertex -9.386066e+000 -5.926129e+001  2.000000e+001
    endloop
  endfacet
  facet normal -8.535933e-002 -8.666694e-001 -4.915261e-001
    outer loop
      vertex  6.868580e-014 -3.749998e+001 -2.000000e+001
      vertex -9.386066e+000 -5.926129e+001  2.000000e+001
      vertex -7.315886e+000 -3.677943e+001 -2.000000e+001
    endloop
  endfacet
  facet normal  2.038042e-001 -8.489052e-001 -4.876718e-001
    outer loop
      vertex  7.315886e+000 -3.677943e+001 -2.000000e+001
      vertex  1.854102e+001 -5.706338e+001  2.000000e+001
      vertex  9.386066e+000 -5.926129e+001  2.000000e+001
    endloop
  endfacet
  facet normal  8.535933e-002 -8.666694e-001 -4.915261e-001
    outer loop
      vertex  7.315886e+000 -3.677943e+001 -2.000000e+001
      vertex  9.386066e+000 -5.926129e+001  2.000000e+001
      vertex  6.868580e-014 -3.749998e+001 -2.000000e+001
    endloop
  endfacet
  facet normal  3.341956e-001 -8.068200e-001 -4.871907e-001
    outer loop
      vertex  1.435063e+001 -3.464547e+001 -2.000000e+001
      vertex  2.723943e+001 -5.346038e+001  2.000000e+001
      vertex  1.854102e+001 -5.706338e+001  2.000000e+001
    endloop
  endfacet
  facet normal  2.525477e-001 -8.325385e-001 -4.930511e-001
    outer loop
      vertex  1.435063e+001 -3.464547e+001 -2.000000e+001
      vertex  1.854102e+001 -5.706338e+001  2.000000e+001
      vertex  7.315886e+000 -3.677943e+001 -2.000000e+001
    endloop
  endfacet
  facet normal  4.561555e-001 -7.443779e-001 -4.876718e-001
    outer loop
      vertex  2.083388e+001 -3.118010e+001 -2.000000e+001
      vertex  3.526711e+001 -4.854101e+001  2.000000e+001
      vertex  2.723943e+001 -5.346038e+001  2.000000e+001
    endloop
  endfacet
  facet normal  4.101152e-001 -7.672719e-001 -4.930512e-001
    outer loop
      vertex  2.083388e+001 -3.118010e+001 -2.000000e+001
      vertex  2.723943e+001 -5.346038e+001  2.000000e+001
      vertex  1.435063e+001 -3.464547e+001 -2.000000e+001
    endloop
  endfacet
  facet normal  5.664619e-001 -6.632423e-001 -4.891119e-001
    outer loop
      vertex  2.651650e+001 -2.651649e+001 -2.000000e+001
      vertex  4.242640e+001 -4.242640e+001  2.000000e+001
      vertex  3.526711e+001 -4.854101e+001  2.000000e+001
    endloop
  endfacet
  facet normal  5.524696e-001 -6.731861e-001 -4.915261e-001
    outer loop
      vertex  2.651650e+001 -2.651649e+001 -2.000000e+001
      vertex  3.526711e+001 -4.854101e+001  2.000000e+001
      vertex  2.083388e+001 -3.118010e+001 -2.000000e+001
    endloop
  endfacet
  facet normal  7.443779e-001 -4.561554e-001 -4.876719e-001
    outer loop
      vertex  3.118011e+001 -2.083388e+001 -2.000000e+001
      vertex  5.346039e+001 -2.723942e+001  2.000000e+001
      vertex  4.854102e+001 -3.526711e+001  2.000000e+001
    endloop
  endfacet
  facet normal  6.731858e-001 -5.524699e-001 -4.915261e-001
    outer loop
      vertex  3.118011e+001 -2.083388e+001 -2.000000e+001
      vertex  4.854102e+001 -3.526711e+001  2.000000e+001
      vertex  2.651650e+001 -2.651649e+001 -2.000000e+001
    endloop
  endfacet
  facet normal  8.068200e-001 -3.341956e-001 -4.871907e-001
    outer loop
      vertex  3.464548e+001 -1.435062e+001 -2.000000e+001
      vertex  5.706339e+001 -1.854102e+001  2.000000e+001
      vertex  5.346039e+001 -2.723942e+001  2.000000e+001
    endloop
  endfacet
  facet normal  7.672717e-001 -4.101153e-001 -4.930511e-001
    outer loop
      vertex  3.464548e+001 -1.435062e+001 -2.000000e+001
      vertex  5.346039e+001 -2.723942e+001  2.000000e+001
      vertex  3.118011e+001 -2.083388e+001 -2.000000e+001
    endloop
  endfacet
  facet normal  8.489051e-001 -2.038046e-001 -4.876718e-001
    outer loop
      vertex  3.677945e+001 -7.315885e+000 -2.000000e+001
      vertex  5.926130e+001 -9.386066e+000  2.000000e+001
      vertex  5.706339e+001 -1.854102e+001  2.000000e+001
    endloop
  endfacet
  facet normal  8.325383e-001 -2.525483e-001 -4.930511e-001
    outer loop
      vertex  3.677945e+001 -7.315885e+000 -2.000000e+001
      vertex  5.706339e+001 -1.854102e+001  2.000000e+001
      vertex  3.464548e+001 -1.435062e+001 -2.000000e+001
    endloop
  endfacet
  facet normal -5.664619e-001 -6.632423e-001 -4.891119e-001
    outer loop
      vertex -2.651650e+001 -2.651649e+001 -2.000000e+001
      vertex -3.526711e+001 -4.854101e+001  2.000000e+001
      vertex -4.242640e+001 -4.242640e+001  2.000000e+001
    endloop
  endfacet
  facet normal  6.843346e-002 -8.695323e-001 -4.891119e-001
    outer loop
      vertex  6.868580e-014 -3.749998e+001 -2.000000e+001
      vertex  9.386066e+000 -5.926129e+001  2.000000e+001
      vertex -7.105427e-015 -5.999998e+001  2.000000e+001
    endloop
  endfacet
  facet normal  6.632420e-001 -5.664623e-001 -4.891119e-001
    outer loop
      vertex  2.651650e+001 -2.651649e+001 -2.000000e+001
      vertex  4.854102e+001 -3.526711e+001  2.000000e+001
      vertex  4.242640e+001 -4.242640e+001  2.000000e+001
    endloop
  endfacet
  facet normal -8.661070e-001  8.840957e-002 -4.919781e-001
    outer loop
      vertex -3.749998e+001 -3.859447e-011 -1.999999e+001
      vertex -5.926677e+001  9.351455e+000  2.000000e+001
      vertex -3.672659e+001  7.576633e+000 -1.999999e+001
    endloop
  endfacet
  facet normal -8.695471e-001  6.818067e-002 -4.891209e-001
    outer loop
      vertex -3.749998e+001 -3.859447e-011 -1.999999e+001
      vertex -6.000001e+001  1.416822e-011  2.000000e+001
      vertex -5.926677e+001  9.351455e+000  2.000000e+001
    endloop
  endfacet
  facet normal  3.278905e-001  8.082380e-001 -4.891208e-001
    outer loop
      vertex  1.677050e+001  3.354101e+001 -1.999999e+001
      vertex  1.814071e+001  5.719190e+001  2.000000e+001
      vertex  2.683282e+001  5.366564e+001  2.000000e+001
    endloop
  endfacet
  facet normal  3.082586e-001  8.142077e-001 -4.919781e-001
    outer loop
      vertex  1.677050e+001  3.354101e+001 -1.999999e+001
      vertex  9.647882e+000  3.623763e+001 -1.999999e+001
      vertex  1.814071e+001  5.719190e+001  2.000000e+001
    endloop
  endfacet
  facet normal  1.981172e-001  8.503376e-001 -4.875197e-001
    outer loop
      vertex  9.647882e+000  3.623763e+001 -1.999999e+001
      vertex  9.005222e+000  5.932035e+001  2.000000e+001
      vertex  1.814071e+001  5.719190e+001  2.000000e+001
    endloop
  endfacet
  facet normal  6.317353e-002  8.709518e-001 -4.872905e-001
    outer loop
      vertex  2.127318e+000  3.743956e+001 -1.999999e+001
      vertex -3.503572e-001  5.999894e+001  2.000000e+001
      vertex  9.005222e+000  5.932035e+001  2.000000e+001
    endloop
  endfacet
  facet normal  1.372666e-001  8.588856e-001 -4.934301e-001
    outer loop
      vertex  2.127318e+000  3.743956e+001 -1.999999e+001
      vertex  9.005222e+000  5.932035e+001  2.000000e+001
      vertex  9.647882e+000  3.623763e+001 -1.999999e+001
    endloop
  endfacet
  facet normal -7.328884e-002  8.695168e-001 -4.884354e-001
    outer loop
      vertex -5.480988e+000  3.709723e+001 -1.999999e+001
      vertex -9.697371e+000  5.921111e+001  2.000000e+001
      vertex -3.503572e-001  5.999894e+001  2.000000e+001
    endloop
  endfacet
  facet normal -3.911491e-002  8.693171e-001 -4.927045e-001
    outer loop
      vertex -5.480988e+000  3.709723e+001 -1.999999e+001
      vertex -3.503572e-001  5.999894e+001  2.000000e+001
      vertex  2.127318e+000  3.743956e+001 -1.999999e+001
    endloop
  endfacet
  facet normal -3.375728e-001  8.049824e-001 -4.879015e-001
    outer loop
      vertex -1.286322e+001  3.522474e+001 -1.999999e+001
      vertex -2.745770e+001  5.334856e+001  2.000000e+001
      vertex -1.880737e+001  5.697611e+001  2.000000e+001
    endloop
  endfacet
  facet normal -2.141838e-001  8.444148e-001 -4.910080e-001
    outer loop
      vertex -1.286322e+001  3.522474e+001 -1.999999e+001
      vertex -1.880737e+001  5.697611e+001  2.000000e+001
      vertex -5.480988e+000  3.709723e+001 -1.999999e+001
    endloop
  endfacet
  facet normal -2.077105e-001  8.466395e-001 -4.899571e-001
    outer loop
      vertex -5.480988e+000  3.709723e+001 -1.999999e+001
      vertex -1.880737e+001  5.697611e+001  2.000000e+001
      vertex -9.697371e+000  5.921111e+001  2.000000e+001
    endloop
  endfacet
  facet normal -4.591118e-001  7.428585e-001 -4.872140e-001
    outer loop
      vertex -1.971488e+001  3.189934e+001 -1.999999e+001
      vertex -3.543694e+001  4.841711e+001  2.000000e+001
      vertex -2.745770e+001  5.334856e+001  2.000000e+001
    endloop
  endfacet
  facet normal -3.798365e-001  7.826171e-001 -4.931883e-001
    outer loop
      vertex -1.971488e+001  3.189934e+001 -1.999999e+001
      vertex -2.745770e+001  5.334856e+001  2.000000e+001
      vertex -1.286322e+001  3.522474e+001 -1.999999e+001
    endloop
  endfacet
  facet normal -5.690311e-001  6.619333e-001 -4.879015e-001
    outer loop
      vertex -2.575336e+001  2.725820e+001 -1.999999e+001
      vertex -4.255007e+001  4.230231e+001  2.000000e+001
      vertex -3.543694e+001  4.841711e+001  2.000000e+001
    endloop
  endfacet
  facet normal -5.301256e-001  6.897334e-001 -4.931883e-001
    outer loop
      vertex -2.575336e+001  2.725820e+001 -1.999999e+001
      vertex -3.543694e+001  4.841711e+001  2.000000e+001
      vertex -1.971488e+001  3.189934e+001 -1.999999e+001
    endloop
  endfacet
  facet normal -7.449437e-001  4.544114e-001 -4.884355e-001
    outer loop
      vertex -3.072959e+001  2.149273e+001 -1.999999e+001
      vertex -5.350800e+001  2.714571e+001  2.000000e+001
      vertex -4.862323e+001  3.515361e+001  2.000000e+001
    endloop
  endfacet
  facet normal -6.599993e-001  5.696519e-001 -4.897936e-001
    outer loop
      vertex -3.072959e+001  2.149273e+001 -1.999999e+001
      vertex -4.862323e+001  3.515361e+001  2.000000e+001
      vertex -2.575336e+001  2.725820e+001 -1.999999e+001
    endloop
  endfacet
  facet normal -6.639435e-001  5.640514e-001 -4.909431e-001
    outer loop
      vertex -2.575336e+001  2.725820e+001 -1.999999e+001
      vertex -4.862323e+001  3.515361e+001  2.000000e+001
      vertex -4.255007e+001  4.230231e+001  2.000000e+001
    endloop
  endfacet
  facet normal -8.072551e-001  3.329972e-001 -4.872904e-001
    outer loop
      vertex -3.443833e+001  1.484075e+001 -1.999999e+001
      vertex -5.708499e+001  1.847435e+001  2.000000e+001
      vertex -5.350800e+001  2.714571e+001  2.000000e+001
    endloop
  endfacet
  facet normal -7.600480e-001  4.237561e-001 -4.927045e-001
    outer loop
      vertex -3.443833e+001  1.484075e+001 -1.999999e+001
      vertex -5.350800e+001  2.714571e+001  2.000000e+001
      vertex -3.072959e+001  2.149273e+001 -1.999999e+001
    endloop
  endfacet
  facet normal -8.491657e-001  2.030815e-001 -4.875197e-001
    outer loop
      vertex -3.672659e+001  7.576633e+000 -1.999999e+001
      vertex -5.926677e+001  9.351455e+000  2.000000e+001
      vertex -5.708499e+001  1.847435e+001  2.000000e+001
    endloop
  endfacet
  facet normal -8.295982e-001  2.613304e-001 -4.934300e-001
    outer loop
      vertex -3.672659e+001  7.576633e+000 -1.999999e+001
      vertex -5.708499e+001  1.847435e+001  2.000000e+001
      vertex -3.443833e+001  1.484075e+001 -1.999999e+001
    endloop
  endfacet
endsolid CATIA STL
